<?xml version="1.0" standalone="no"?>
<!DOCTYPE svg PUBLIC "-//W3C//DTD SVG 20010904//EN"
 "http://www.w3.org/TR/2001/REC-SVG-20010904/DTD/svg10.dtd">
<svg version="1.0" xmlns="http://www.w3.org/2000/svg"
 width="500.000000pt" height="500.000000pt" viewBox="0 0 500.000000 10.000000"
 preserveAspectRatio="xMidYMid meet">
<metadata>
Created by potrace 1.16, written by Peter Selinger 2001-2019
</metadata>
<g transform="translate(0.000000,300.000000) scale(0.100000,-0.100000)"
fill="#000000" stroke="none">
<path d="M500 2970 c0 -20 7 -20 2000 -20 1993 0 2000 0 2000 20 0 20 -7 20
-2000 20 -1993 0 -2000 0 -2000 -20z"/>
<path d="M694 2786 c-34 -15 -44 -32 -44 -77 0 -34 24 -53 93 -70 54 -13 70
-35 42 -56 -20 -14 -72 -9 -108 9 -13 7 -19 4 -26 -14 -8 -20 -5 -25 23 -37
48 -21 144 -10 167 18 28 34 24 75 -7 100 -15 12 -32 21 -38 21 -6 0 -28 5
-49 11 -31 8 -38 14 -35 32 2 17 11 23 40 25 20 2 46 -2 58 -8 17 -9 22 -7 29
12 7 19 5 25 -18 35 -35 16 -89 15 -127 -1z"/>
<path d="M1034 2788 c-12 -15 -114 -242 -114 -252 0 -3 13 -6 29 -6 23 0 31 6
40 30 10 29 12 30 70 30 57 0 61 -2 76 -30 12 -23 22 -30 45 -30 34 0 37 -12
-35 150 -44 98 -55 115 -77 118 -13 2 -29 -3 -34 -10z"/>
<path d="M1290 2665 l0 -135 25 0 c23 0 24 3 27 78 l3 77 39 -63 c25 -41 44
-62 54 -60 9 2 32 30 51 63 l36 60 3 -77 3 -78 29 0 30 0 0 74 c0 40 -3 101
-6 135 -6 55 -9 62 -28 59 -13 -2 -37 -31 -69 -86 l-50 -83 -40 68 c-50 85
-65 103 -89 103 -17 0 -18 -10 -18 -135z"/>
<path d="M1697 2793 c-4 -3 -7 -64 -7 -135 l0 -128 30 0 30 0 0 135 c0 135 0
135 -23 135 -13 0 -27 -3 -30 -7z"/>
<path d="M1837 2793 c-4 -3 -7 -15 -7 -25 0 -15 8 -18 45 -18 l45 0 0 -110 0
-110 30 0 30 0 0 110 0 110 40 0 c36 0 40 3 40 25 l0 25 -108 0 c-60 0 -112
-3 -115 -7z"/>
<path d="M2300 2666 l0 -136 78 0 c123 0 185 45 185 134 0 88 -48 124 -179
133 l-84 6 0 -137z m149 73 c37 -13 51 -35 51 -83 0 -47 -37 -76 -96 -76 l-44
0 0 85 0 85 29 0 c15 0 42 -5 60 -11z"/>
<path d="M2660 2665 l0 -135 30 0 c30 0 30 1 30 55 l0 55 60 0 60 0 0 -55 c0
-54 0 -55 30 -55 l30 0 0 136 0 135 -27 -3 c-26 -3 -28 -7 -31 -55 l-3 -53
-60 0 -59 0 0 55 c0 54 0 55 -30 55 l-30 0 0 -135z"/>
<path d="M3096 2792 c-7 -12 -116 -254 -116 -259 0 -2 14 -3 31 -3 24 0 32 6
40 30 11 29 13 30 74 30 61 0 63 -1 74 -30 8 -24 16 -30 40 -30 17 0 31 3 30
8 0 4 -26 63 -57 132 -51 110 -61 125 -84 128 -14 2 -29 -1 -32 -6z"/>
<path d="M3330 2788 c0 -7 18 -68 41 -135 l41 -123 32 0 c31 0 32 2 60 85 15
47 31 83 35 80 5 -2 19 -41 32 -85 l23 -81 35 3 35 3 38 120 c21 66 38 126 38
133 0 6 -11 12 -24 12 -22 0 -28 -10 -57 -97 l-32 -97 -31 95 c-28 85 -34 94
-57 97 -25 3 -29 -2 -54 -80 -15 -46 -31 -87 -35 -91 -4 -4 -20 32 -36 80 -26
80 -31 88 -56 91 -18 2 -28 -1 -28 -10z"/>
<path d="M3900 2755 c-11 -25 -29 -65 -40 -90 -11 -25 -29 -65 -40 -90 l-19
-45 29 0 c23 0 33 7 45 30 15 28 19 30 74 30 56 0 59 -1 71 -30 10 -24 19 -30
41 -30 16 0 29 4 29 9 0 11 -100 233 -113 249 -5 6 -20 12 -34 12 -19 0 -28
-10 -43 -45z"/>
<path d="M4177 2793 c-4 -3 -7 -64 -7 -135 l0 -128 100 0 100 0 0 25 c0 24 -2
25 -70 25 l-70 0 0 110 c0 109 0 110 -23 110 -13 0 -27 -3 -30 -7z"/>
<path d="M500 2360 c0 -20 7 -20 2000 -20 1993 0 2000 0 2000 20 0 20 -7 20
-2000 20 -1993 0 -2000 0 -2000 -20z"/>
</g>
</svg>
