<?xml version="1.0" standalone="no"?>
<!DOCTYPE svg PUBLIC "-//W3C//DTD SVG 20010904//EN"
 "http://www.w3.org/TR/2001/REC-SVG-20010904/DTD/svg10.dtd">
<svg version="1.0" xmlns="http://www.w3.org/2000/svg"
 width="1500px" height="1500px" viewBox="0 0 200.000000 290.000000"
 preserveAspectRatio="xMidYMid meet">
<metadata>
Created by potrace 1.16, written by Peter Selinger 2001-2019
</metadata>
<g transform="translate(0.000000,500.000000) scale(0.100000,-0.100000)"
fill="#000000" stroke="none">
<path d="M1873 2980 c-48 -29 -67 -63 -60 -108 8 -48 42 -77 115 -98 70 -20
101 -46 82 -68 -19 -24 -80 -19 -135 9 -27 13 -50 23 -51 22 -1 -1 -9 -17 -19
-36 -14 -28 -15 -35 -3 -43 72 -48 182 -63 249 -33 63 29 86 93 55 154 -14 27
-40 41 -138 76 -39 14 -48 21 -48 41 0 21 4 24 40 24 22 0 57 -7 77 -15 47
-20 47 -20 66 20 l17 36 -42 19 c-59 27 -162 27 -205 0z"/>
<path d="M2215 2814 c-44 -103 -81 -191 -83 -195 -2 -5 19 -9 47 -9 48 0 50 1
62 35 l13 35 87 0 88 0 12 -35 c13 -34 15 -35 66 -35 l53 0 -15 38 c-9 20 -45
108 -82 195 l-66 157 -51 0 -52 0 -79 -186z"/>
<path d="M2590 2805 l0 -195 45 0 44 0 3 122 3 122 44 -102 c42 -100 44 -102
76 -102 32 0 34 2 77 100 l43 101 3 -121 3 -120 44 0 45 0 0 195 0 196 -55 -3
-56 -3 -52 -114 -51 -114 -22 49 c-12 27 -36 79 -53 117 l-30 67 -56 0 -55 0
0 -195z"/>
<path d="M3090 2805 l0 -195 50 0 50 0 0 195 0 195 -50 0 -50 0 0 -195z"/>
<path d="M3230 2960 l0 -40 60 0 60 0 0 -155 0 -155 45 0 45 0 0 155 0 155 60
0 60 0 0 40 0 40 -165 0 -165 0 0 -40z"/>
<path d="M1820 2355 l0 -195 98 0 c118 0 161 11 209 53 44 39 63 82 63 142 0
60 -19 103 -63 142 -48 42 -91 53 -209 53 l-98 0 0 -195z m232 86 c30 -27 33
-35 33 -86 0 -51 -3 -59 -33 -86 -26 -24 -41 -29 -82 -29 l-50 0 0 115 0 115
50 0 c41 0 56 -5 82 -29z"/>
<path d="M2240 2355 l0 -195 50 0 50 0 0 75 0 75 80 0 80 0 0 -75 0 -75 50 0
50 0 0 195 0 195 -50 0 -50 0 0 -80 0 -80 -80 0 -80 0 0 80 0 80 -50 0 -50 0
0 -195z"/>
<path d="M2715 2364 c-44 -103 -81 -191 -83 -195 -2 -5 19 -9 47 -9 48 0 50 1
62 35 l13 35 87 0 88 0 12 -35 c13 -34 15 -35 66 -35 l53 0 -15 38 c-9 20 -45
108 -82 195 l-66 157 -51 0 -52 0 -79 -186z"/>
<path d="M3115 2358 l62 -193 52 -3 c35 -2 53 1 56 10 2 7 19 67 36 133 18 65
35 113 38 105 3 -8 19 -67 36 -130 l31 -115 51 -3 51 -3 65 196 66 196 -52 -3
-52 -3 -34 -133 c-19 -73 -37 -129 -41 -125 -4 4 -23 66 -41 136 l-33 128 -50
-3 -50 -3 -35 -138 c-24 -96 -37 -133 -42 -119 -4 10 -22 74 -39 141 l-33 121
-52 0 -52 0 62 -192z"/>
<path d="M3735 2364 c-44 -103 -81 -191 -83 -195 -2 -5 19 -9 47 -9 48 0 50 1
62 35 l13 35 87 0 88 0 12 -35 c13 -34 15 -35 66 -35 l53 0 -15 38 c-9 20 -45
108 -82 195 l-66 157 -51 0 -52 0 -79 -186z"/>
<path d="M4110 2355 l0 -195 135 0 135 0 0 40 0 40 -85 0 -85 0 0 155 0 155
-50 0 -50 0 0 -195z"/>
</g>
</svg>
